<svg width="33" height="32" viewBox="0 0 33 32" fill="none" xmlns="http://www.w3.org/2000/svg">
<g clip-path="url(#clip0_17_7799)">
<path d="M7.06322 0H25.1965C28.9965 0 32.1299 3.13333 32.1299 6.93333V25.0667C32.1299 28.8667 28.9965 32 25.1965 32H7.06322C3.26322 32 0.129883 28.8667 0.129883 25.0667V6.93333C0.129883 3.13333 3.26322 0 7.06322 0Z" fill="#FFD02F"/>
<path fill-rule="evenodd" clip-rule="evenodd" d="M22.3302 4H18.7969L21.7302 9.13333L15.3302 4H11.7969L14.9969 10.2667L8.33021 4H4.79688L8.33021 12L4.79688 28H8.33021L15.0635 10.8667L11.7969 28H15.3302L21.7969 9.73333L18.8635 28H22.3969L28.7969 8L22.3302 4Z" fill="#050038"/>
</g>
<defs>
<clipPath id="clip0_17_7799">
<rect width="32" height="32" fill="white" transform="translate(0.129883)"/>
</clipPath>
</defs>
</svg>
